<mxfile host="Electron" agent="Mozilla/5.0 (Macintosh; Intel Mac OS X 10_15_7) AppleWebKit/537.36 (KHTML, like Gecko) draw.io/24.7.17 Chrome/128.0.6613.36 Electron/32.0.1 Safari/537.36" version="24.7.17">
  <diagram name="Architecture" id="VMlio_RRjKrMsMHCUawz">
    <mxGraphModel dx="1572" dy="988" grid="1" gridSize="10" guides="1" tooltips="1" connect="1" arrows="1" fold="1" page="1" pageScale="1" pageWidth="850" pageHeight="1100" math="0" shadow="0">
      <root>
        <mxCell id="0" />
        <mxCell id="1" parent="0" />
        <mxCell id="Ydd5ABQOblKuqTb5GGUO-9" value="" style="group;strokeWidth=4;" vertex="1" connectable="0" parent="1">
          <mxGeometry x="60" y="440" width="200" height="220" as="geometry" />
        </mxCell>
        <mxCell id="Ydd5ABQOblKuqTb5GGUO-5" value="Indexes information&lt;div style=&quot;font-size: 20px;&quot;&gt;PostGIS + H3&lt;/div&gt;&lt;div style=&quot;font-size: 20px;&quot;&gt;Functions for indexes&lt;/div&gt;" style="shape=cylinder3;whiteSpace=wrap;html=1;boundedLbl=1;backgroundOutline=1;size=30;fontSize=20;verticalAlign=top;fillColor=#dae8fc;strokeColor=#6c8ebf;strokeWidth=2;" vertex="1" parent="Ydd5ABQOblKuqTb5GGUO-9">
          <mxGeometry width="200" height="220" as="geometry" />
        </mxCell>
        <mxCell id="Ydd5ABQOblKuqTb5GGUO-3" value="" style="shape=image;verticalLabelPosition=bottom;labelBackgroundColor=default;verticalAlign=top;aspect=fixed;imageAspect=0;image=data:image/svg+xml,PHN2ZyB4bWxucz0iaHR0cDovL3d3dy53My5vcmcvMjAwMC9zdmciIHZpZXdCb3g9IjAgMCA0OCA0OCI+PGcgc3Ryb2tlLXdpZHRoPSIxMi40NjUiIHN0cm9rZS1saW5lam9pbj0icm91bmQiIHN0cm9rZS1saW5lY2FwPSJyb3VuZCIgc3Ryb2tlPSIjZmZmIiBmaWxsPSJub25lIj48cGF0aCBkPSJNMzUuNTE0IDM0Ljk2NGMuMzA1LTIuNTQ1LjIxMy0yLjkxOCAyLjExLTIuNTA2bC40OC4wNDJjMS40NTguMDY3IDMuMzY1LS4yMzQgNC40ODUtLjc1NSAyLjQxMi0xLjExOCAzLjg0MS0yLjk4NyAxLjQ2NC0yLjQ5Ni01LjQyNCAxLjEyLTUuNzk3LS43MTctNS43OTctLjcxNyA1LjcyNy04LjQ5OCA4LjEyMS0xOS4yODYgNi4wNTUtMjEuOTI2QzM4LjY3NC0uNTk2IDI4LjkxNyAyLjgxIDI4Ljc1NCAyLjg5OGwtLjA1Mi4wMWExOS4zMzQgMTkuMzM0IDAgMCAwLTMuNjE4LS4zNzdjLTIuNDU1LS4wNC00LjMxNy42NDMtNS43MyAxLjcxNSAwIDAtMTcuNDA2LTcuMTcxLTE2LjU5NiA5LjAxOC4xNzIgMy40NDQgNC45MzYgMjYuMDYgMTAuNjE5IDE5LjIyOGExMDQuNzg1IDEwNC43ODUgMCAwIDEgNC4wODQtNC42MWMuOTk2LjY2MyAyLjE5IDEgMy40NC44OGwuMDk4LS4wODNjLS4wMy4zMS0uMDE3LjYxMy4wMzguOTcyLTEuNDYzIDEuNjM2LTEuMDMzIDEuOTIzLTMuOTYgMi41MjUtMi45Ni42MS0xLjIyMSAxLjY5Ny0uMDg2IDEuOTgxIDEuMzc3LjM0NCA0LjU2Mi44MzIgNi43MTUtMi4xODFsLS4wODYuMzQ0Yy41NzUuNDYuNTM2IDMuMzAyLjYxNyA1LjMzMy4wODIgMi4wMy4yMTggMy45MjYuNjMyIDUuMDQzLjQxNCAxLjExNy45MDIgMy45OTYgNC43NDggMy4xNzEgMy4yMTUtLjY4OSA1LjY3My0xLjY4IDUuODk3LTEwLjkwMyIgc3Ryb2tlLXdpZHRoPSI0LjAzMyIgc3Ryb2tlLWxpbmVqb2luPSJtaXRlciIgc3Ryb2tlLWxpbmVjYXA9ImJ1dHQiIHN0cm9rZT0iIzAwMCIgZmlsbD0iIzAwMCIvPjxwYXRoIGQ9Ik00NC4wNTQgMjkuMjQ5Yy01LjQyNCAxLjExOS01Ljc5Ny0uNzE4LTUuNzk3LS43MTggNS43MjctOC40OTggOC4xMjEtMTkuMjg2IDYuMDU1LTIxLjkyNkMzOC42NzYtLjU5NyAyOC45MiAyLjgwOSAyOC43NTYgMi44OTdsLS4wNTMuMDFhMTkuMzQ0IDE5LjM0NCAwIDAgMC0zLjYxOS0uMzc4Yy0yLjQ1NC0uMDQtNC4zMTYuNjQ0LTUuNzI5IDEuNzE1IDAgMC0xNy40MDYtNy4xNy0xNi41OTYgOS4wMTkuMTcyIDMuNDQ0IDQuOTM2IDI2LjA2IDEwLjYxOSAxOS4yMjggMi4wNzctMi40OTggNC4wODQtNC42MSA0LjA4NC00LjYxLjk5Ni42NjIgMi4xOSAxIDMuNDQuODc5bC4wOTgtLjA4M2MtLjAzLjMxLS4wMTcuNjE0LjAzOS45NzMtMS40NjQgMS42MzYtMS4wMzQgMS45MjMtMy45NiAyLjUyNS0yLjk2Mi42MS0xLjIyMiAxLjY5Ny0uMDg2IDEuOTggMS4zNzYuMzQ1IDQuNTYyLjgzMyA2LjcxNC0yLjE4bC0uMDg2LjM0NGMuNTc0LjQ1OS45NzcgMi45ODguOTEgNS4yOC0uMDY4IDIuMjkzLS4xMTMgMy44NjcuMzM5IDUuMDk2cy45MDIgMy45OTUgNC43NDkgMy4xNzFjMy4yMTQtLjY4OSA0Ljg4LTIuNDc0IDUuMTEyLTUuNDUyLjE2NC0yLjExNy41MzctMS44MDQuNTYtMy42OTZsLjI5OS0uODk2Yy4zNDQtMi44Ny4wNTQtMy43OTYgMi4wMzUtMy4zNjVsLjQ4LjA0MmMxLjQ1OS4wNjYgMy4zNjYtLjIzNCA0LjQ4Ni0uNzU1IDIuNDExLTEuMTE5IDMuODQxLTIuOTg3IDEuNDY0LTIuNDk2eiIgc3Ryb2tlPSJub25lIiBmaWxsPSIjMzM2NzkxIi8+PHBhdGggZD0iTTIzLjkzNyAzMC44OTNjLS4xNDggNS4zNC4wMzkgMTAuNzE1LjU2IDEyLjAyMi41MjQgMS4zMDcgMS42NDMgMy44NDggNS40OSAzLjAyNCAzLjIxNC0uNjkgNC4zODMtMi4wMjMgNC44OS00Ljk2Ny4zNzMtMi4xNjQgMS4wOTUtOC4xNzggMS4xODctOS40MU0xOS4zMjcgNC4xMjVTMS45MS0yLjk5NSAyLjcyIDEzLjE5NWMuMTcyIDMuNDQ1IDQuOTM2IDI2LjA1NyAxMC42MTkgMTkuMjI4YTk0LjAzIDk0LjAzIDAgMCAxIDMuOTUzLTQuNDU3bTExLjQ0Mi0yNS4xNGMtLjYwMi4xOSA5LjY5LTMuNzYyIDE1LjUzNyAzLjcxMSAyLjA2NyAyLjY0LS4zMjggMTMuNDI3LTYuMDUzIDIxLjkyNSIgc3Ryb2tlLXdpZHRoPSIxLjM0NCIvPjxwYXRoIGQ9Ik0zOC4yMTggMjguNDY0cy4zNzMgMS44MzcgNS43OTguNzE3YzIuMzc3LS40OS45NDYgMS4zNzgtMS40NjQgMi40OTctMS45NzkuOTE4LTYuNDE0IDEuMTU0LTYuNDg2LS4xMTUtLjE4Ny0zLjI3NCAyLjMzNC0yLjI4IDIuMTUyLTMuMS0uMTY0LS43MzgtMS4yOTItMS40NjMtMi4wMzctMy4yNy0uNjUxLTEuNTc5LTguOTI5LTEzLjY4IDIuMjk1LTExLjg4Mi40MTEtLjA4NS0yLjkyNy0xMC42NzctMTMuNDMtMTAuODQ5LTEwLjUwMy0uMTcyLTEwLjE1OCAxMi45MTUtMTAuMTU4IDEyLjkxNSIgc3Ryb2tlLXdpZHRoPSIxLjM0NCIgc3Ryb2tlLWxpbmVqb2luPSJiZXZlbCIvPjxwYXRoIGQ9Ik0yMSAyOS41ODJjLTEuNDY3IDEuNjM2LTEuMDM1IDEuOTIzLTMuOTYgMi41MjUtMi45NjIuNjEtMS4yMjMgMS42OTYtLjA4NyAxLjk4IDEuMzc2LjM0NSA0LjU2Mi44MzIgNi43MTQtMi4xODEuNjU2LS45MTctLjAwNC0yLjM4MS0uOTA0LTIuNzU1LS40MzUtLjE4LTEuMDE4LS40MDUtMS43NjQuNDMxeiIgc3Ryb2tlLXdpZHRoPSIxLjM0NCIvPjxwYXRoIGQ9Ik0yMC45MDEgMjkuNTU0Yy0uMTQ2LS45NjMuMzE4LTIuMTA3LjgxNC0zLjQ0NS43NDYtMi4wMDggMi40Ny00LjAxOCAxLjA5LTEwLjM5LTEuMDI2LTQuNzQ2LTcuOTEzLS45ODYtNy45MTgtLjM0My0uMDA0LjY0NC4zMTIgMy4yNjQtLjExNSA2LjMxNC0uNTU2IDMuOTggMi41MzMgNy4zNDcgNi4wOSA3LjAwMSIgc3Ryb2tlLXdpZHRoPSIxLjM0NCIvPjxwYXRoIGQ9Ik0xOS4yNjUgMTUuMjhjLS4wMzEuMjIuNDAyLjgwNy45NjguODg2LjU2NC4wNzggMS4wNDctLjM4IDEuMDc4LS42LjAzLS4yMi0uNDAzLS40NjItLjk2OC0uNTQtLjU2NS0uMDgtMS4wNDguMDM1LTEuMDc4LjI1NXoiIHN0cm9rZS13aWR0aD0iLjQ0OCIgc3Ryb2tlLWxpbmVqb2luPSJtaXRlciIgc3Ryb2tlLWxpbmVjYXA9ImJ1dHQiIGZpbGw9IiNmZmYiLz48cGF0aCBkPSJNMzYuNDU2IDE0LjgzMmMuMDMuMjItLjQwMi44MDctLjk2OC44ODUtLjU2NS4wNzktMS4wNDgtLjM4LTEuMDc5LS42LS4wMy0uMjIuNDAzLS40NjIuOTY4LS41NHMxLjA0OC4wMzYgMS4wNzkuMjU1eiIgc3Ryb2tlLXdpZHRoPSIuMjI0IiBzdHJva2UtbGluZWpvaW49Im1pdGVyIiBzdHJva2UtbGluZWNhcD0iYnV0dCIgZmlsbD0iI2ZmZiIvPjxwYXRoIGQ9Ik0zOC40NzYgMTMuMzA5Yy4wOTMgMS43MjUtLjM3NCAyLjktLjQzMSA0LjczNi0uMDg3IDIuNjcgMS4yNzIgNS43MjItLjc3NiA4Ljc4MSIgc3Ryb2tlLXdpZHRoPSIxLjM0NCIvPjwvZz48L3N2Zz4=;" vertex="1" parent="Ydd5ABQOblKuqTb5GGUO-9">
          <mxGeometry x="130" y="146.66666666666666" width="45.83333333333333" height="45.83333333333333" as="geometry" />
        </mxCell>
        <mxCell id="Ydd5ABQOblKuqTb5GGUO-10" value="" style="group" vertex="1" connectable="0" parent="1">
          <mxGeometry x="60" y="270" width="200" height="100" as="geometry" />
        </mxCell>
        <mxCell id="Ydd5ABQOblKuqTb5GGUO-8" value="Vector Tile Server" style="rounded=1;whiteSpace=wrap;html=1;fontSize=20;horizontal=1;verticalAlign=top;fillColor=#fff2cc;strokeColor=#d6b656;strokeWidth=2;" vertex="1" parent="Ydd5ABQOblKuqTb5GGUO-10">
          <mxGeometry width="200" height="100" as="geometry" />
        </mxCell>
        <mxCell id="Ydd5ABQOblKuqTb5GGUO-2" value="" style="shape=image;verticalLabelPosition=bottom;labelBackgroundColor=default;verticalAlign=top;aspect=fixed;imageAspect=0;image=data:image/svg+xml,PHN2ZyB4bWxucz0iaHR0cDovL3d3dy53My5vcmcvMjAwMC9zdmciIHhtbDpzcGFjZT0icHJlc2VydmUiIGlkPSJzdmcxIiB2ZXJzaW9uPSIxLjEiIHZpZXdCb3g9IjAgMCAxMTAuMTQ5NzEgMTEwLjE0OTcxIiBoZWlnaHQ9IjExMC4xNDk3MW1tIiB3aWR0aD0iMTEwLjE0OTcxbW0iPjxkZWZzIGlkPSJkZWZzMSIvPjxnIHRyYW5zZm9ybT0idHJhbnNsYXRlKC00OS45MjUxNDQsLTkzLjQyNTE0OCkiIGlkPSJsYXllcjEiPjxyZWN0IHJ5PSIyMy41IiB5PSI5My40MjUxNDgiIHg9IjQ5LjkyNTE0NCIgaGVpZ2h0PSIxMTAuMTQ5NzEiIHdpZHRoPSIxMTAuMTQ5NzEiIGlkPSJyZWN0MiIgc3R5bGU9ImZpbGw6IzI5NWRhYTtmaWxsLW9wYWNpdHk6MTtzdHJva2Utd2lkdGg6MC4yNjQ1ODMiLz48cGF0aCBzdHlsZT0ic3Ryb2tlLXdpZHRoOjAuMjY0NTgzIiBpZD0icGF0aDMiIGNsaXAtcnVsZT0iZXZlbm9kZCIgZD0ibSAxMDUuMTk1NTEsMTA5LjMxMTU5IGMgLTEzLjA1MDgzOCwtMC4wODQ3IC0yMy43MzIwNjcsOS43OTI3NiAtMjMuODExNzA2LDIyLjAxNzMgLTAuMDcwMzgsMTAuODI0NjQgNS4yODIxNDEsMTYuMTA5MTYgMTEuMDc4MzY4LDIxLjgzMTU3IDQuMDQwOTgyLDMuOTg5MzkgOC4yOTczMzgsOC4xOTE1IDExLjA4MjA2OCwxNC42MzE5OSAwLjE4Nzg2LDAuMTUyNjYgMC4zMTM1NCwwLjI1NDUzIDAuMzY3NTEsMC4zMDI2OCBhIDEuMzY2MzA4MywxLjM2NjMwODMgMCAwIDAgMC44OTkwNiwwLjM0MDI1IDEuMzY4NDI1LDEuMzY4NDI1IDAgMCAwIDAuOTAzODEsLTAuMzI4MzQgYyAwLjAxNDUsLTAuMDEzIDAuMDQxMywtMC4wMjQ0IDAuMDc0MSwtMC4wMzg0IDAuMDksLTAuMDM4NiAwLjIyNjc1LC0wLjA5NzQgMC4yOTczOSwtMC4yNjAwOCAyLjc3NTQ4LC02LjM3OTExIDcuMDkyNDIsLTEwLjUyNDYgMTEuMjE1MTYsLTE0LjQ4MzMgNS44NzA4NCwtNS42Mzc0NyAxMS4zNDc0NSwtMTAuODk2NiAxMS40MTc1NywtMjEuNjg4NDIgMC4wNzk2LC0xMi4yMjQ4MSAtMTAuNDcyMjEsLTIyLjI0MDA4IC0yMy41MjMzMSwtMjIuMzI1MjggeiBtIC0wLjIyNzU0LDM1LjAxNzM0IGMgNi40NjIxOCwwLjA0MjEgMTEuNzM1ODYsLTUuMjQxMzkgMTEuNzc4NDUsLTExLjgwMDk0IDAuMDQyNiwtNi41NTk1NSAtNS4xNjE3NSwtMTEuOTExMjggLTExLjYyNDIsLTExLjk1MzM1IC02LjQ2MjQ0OCwtMC4wNDIxIC0xMS43MzU4NTgsNS4yNDE0IC0xMS43Nzg3MjEsMTEuODAwOTUgLTAuMDQyNiw2LjU1OTU1IDUuMTYxNzU3LDExLjkxMTI3IDExLjYyNDIwMSwxMS45NTMzNCB6IiBmaWxsLXJ1bGU9ImV2ZW5vZGQiIGZpbGw9IiM4MmI0ZmUiLz48cGF0aCBzdHlsZT0ic3Ryb2tlLXdpZHRoOjAuMjY0NTgzIiBpZD0icGF0aDQiIGNsaXAtcnVsZT0iZXZlbm9kZCIgZD0ibSA5Ni41MDkyMzksMTcyLjIxODkzIGMgLTEuMDc4MTc3LC0wLjAwNyAtMS45NjAwMzMsMS4xODUzMyAtMS45Njk1NTgsMi42NjMwMyBsIC0wLjA0ODY4LDcuNDc5NSBjIC0wLjAwOTgsMS40Nzc3IDAuODU2NDU3LDIuNjgxMjkgMS45MzQ4OTgsMi42ODg0MyBsIDE2LjUwNjAzMSwwLjEwNzQzIGMgMS4wNzgxOCwwLjAwNyAxLjk2MDAzLC0xLjE4NTM0IDEuOTY5NTYsLTIuNjYzMDQgbCAwLjA0ODcsLTcuNDc5NSBjIDAuMDEsLTEuNDc3OTYgLTAuODU2NDYsLTIuNjgxNTUgLTEuOTM0OSwtMi42ODg0MyB6IiBmaWxsLXJ1bGU9ImV2ZW5vZGQiIGZpbGw9IiNmZmZmZmYiLz48L2c+PC9zdmc+;" vertex="1" parent="Ydd5ABQOblKuqTb5GGUO-10">
          <mxGeometry x="135" y="40" width="50" height="50" as="geometry" />
        </mxCell>
        <mxCell id="Ydd5ABQOblKuqTb5GGUO-11" value="" style="group" vertex="1" connectable="0" parent="1">
          <mxGeometry x="60" y="100" width="220" height="580" as="geometry" />
        </mxCell>
        <mxCell id="Ydd5ABQOblKuqTb5GGUO-7" value="HTTP Server&lt;div style=&quot;font-size: 20px;&quot;&gt;Cache&lt;/div&gt;" style="rounded=1;whiteSpace=wrap;html=1;fontSize=20;verticalAlign=top;fillColor=#d5e8d4;strokeColor=#82b366;strokeWidth=2;" vertex="1" parent="Ydd5ABQOblKuqTb5GGUO-11">
          <mxGeometry width="200" height="100" as="geometry" />
        </mxCell>
        <mxCell id="Ydd5ABQOblKuqTb5GGUO-4" value="" style="shape=image;verticalLabelPosition=bottom;labelBackgroundColor=default;verticalAlign=top;aspect=fixed;imageAspect=0;image=data:image/svg+xml,PHN2ZyB4bWxucz0iaHR0cDovL3d3dy53My5vcmcvMjAwMC9zdmciIHZpZXdCb3g9IjAgMCA0OCA0OCI+PGRlZnM+PHN0eWxlPi5uZ2lueF9zdmdfX2Nscy0xe2ZpbGw6Izk5OX08L3N0eWxlPjwvZGVmcz48ZyBzdHJva2Utd2lkdGg9IjEuMjQ1Ij48cGF0aCBkPSJNMy4yMTUgMzZhMi40MjUgMi40MjUgMCAwIDAgLjkxLjkwNWwxOC42MzYgMTAuNzU5YTIuNDQ1IDIuNDQ1IDAgMCAwIDIuNDc3IDBsMTguNjM2LTEwLjc2YTIuNDQ0IDIuNDQ0IDAgMCAwIDEuMjM4LTIuMTQ1VjEzLjI0MmEyLjQ0NSAyLjQ0NSAwIDAgMC0xLjI0LTIuMTQ0TDI1LjIzNy4zMzhhMi40NDIgMi40NDIgMCAwIDAtMi40NzUgMEw0LjEyNyAxMS4wOTZhMi40NDMgMi40NDMgMCAwIDAtMS4yNCAyLjE0NHYyMS41MkEyLjQzIDIuNDMgMCAwIDAgMy4yMTMgMzYiIGZpbGw9IiMwMDk2MzkiLz48cGF0aCBkPSJNMTguMDMzIDMyLjE5MWEyLjM5NyAyLjM5NyAwIDAgMS00Ljc5MyAwdi4wMDFsLjAwMi0xNi40NTFhMi40OTggMi40OTggMCAwIDEgMi43MjItMi4zMjkgNC4yNjIgNC4yNjIgMCAwIDEgMy4yNjcgMS40NjFsLjcyNC44NjcgMTAuMDEyIDExLjk4MlYxNS44MDhhMi4zOTcgMi4zOTcgMCAxIDEgNC43OTIgMGwtLjAwMyAxNi40NWEyLjQ5OSAyLjQ5OSAwIDAgMS0yLjcyIDIuMzMgNC4yNiA0LjI2IDAgMCAxLTMuMjY4LTEuNDYyTDE4LjAzMiAyMC4yNzlWMzIuMTl6IiBmaWxsPSIjZmZmIi8+PC9nPjwvc3ZnPg==;" vertex="1" parent="Ydd5ABQOblKuqTb5GGUO-11">
          <mxGeometry x="135" y="40" width="50" height="50" as="geometry" />
        </mxCell>
        <mxCell id="Ydd5ABQOblKuqTb5GGUO-12" value="" style="rounded=0;whiteSpace=wrap;html=1;fillColor=none;dashed=1;strokeWidth=2;dashPattern=12 12;" vertex="1" parent="Ydd5ABQOblKuqTb5GGUO-11">
          <mxGeometry x="-20" y="-60" width="240" height="640" as="geometry" />
        </mxCell>
        <mxCell id="Ydd5ABQOblKuqTb5GGUO-13" value="" style="image;sketch=0;aspect=fixed;html=1;points=[];align=center;fontSize=12;image=img/lib/mscae/Docker.svg;" vertex="1" parent="Ydd5ABQOblKuqTb5GGUO-11">
          <mxGeometry x="154" y="-50" width="50" height="41" as="geometry" />
        </mxCell>
        <mxCell id="Ydd5ABQOblKuqTb5GGUO-14" value="" style="shape=flexArrow;endArrow=classic;startArrow=classic;html=1;rounded=0;exitX=0.5;exitY=0;exitDx=0;exitDy=0;" edge="1" parent="1" source="Ydd5ABQOblKuqTb5GGUO-8">
          <mxGeometry width="100" height="100" relative="1" as="geometry">
            <mxPoint x="-280" y="500" as="sourcePoint" />
            <mxPoint x="160" y="200" as="targetPoint" />
          </mxGeometry>
        </mxCell>
        <mxCell id="Ydd5ABQOblKuqTb5GGUO-15" value="" style="shape=flexArrow;endArrow=classic;startArrow=classic;html=1;rounded=0;exitX=0.5;exitY=0;exitDx=0;exitDy=0;" edge="1" parent="1">
          <mxGeometry width="100" height="100" relative="1" as="geometry">
            <mxPoint x="159.57000000000005" y="440" as="sourcePoint" />
            <mxPoint x="159.57000000000005" y="370" as="targetPoint" />
          </mxGeometry>
        </mxCell>
      </root>
    </mxGraphModel>
  </diagram>
</mxfile>
